<?xml version="1.0" encoding="UTF-8" standalone="no"?>
<!DOCTYPE svg PUBLIC "-//W3C//DTD SVG 1.1//EN"
 "http://www.w3.org/Graphics/SVG/1.1/DTD/svg11.dtd">
<!-- Generated by graphviz version 2.47.0 (20210316.0004)
 -->
<!-- Title: dependencies Pages: 1 -->
<svg width="5126pt" height="211pt"
 viewBox="0.00 0.00 5126.00 211.00" xmlns="http://www.w3.org/2000/svg" xmlns:xlink="http://www.w3.org/1999/xlink">
<g id="graph0" class="graph" transform="scale(1 1) rotate(0) translate(4 207)">
<title>dependencies</title>
<polygon fill="white" stroke="transparent" points="-4,4 -4,-207 5122,-207 5122,4 -4,4"/>
<text text-anchor="start" x="2538.01" y="-42.4" font-family="Times-12" font-weight="bold" font-size="14.00">Legend</text>
<polygon fill="#ffffb3" stroke="transparent" points="2325,-10 2325,-30 2345,-30 2345,-10 2325,-10"/>
<text text-anchor="start" x="2348.63" y="-15.4" font-family="Times-12" font-size="14.00"> &#160;Declarations</text>
<polygon fill="#8dd3c7" stroke="transparent" points="2438,-10 2438,-30 2458,-30 2458,-10 2438,-10"/>
<text text-anchor="start" x="2461.73" y="-15.4" font-family="Times-12" font-size="14.00"> &#160;Module</text>
<polygon fill="#80b1d3" stroke="transparent" points="2524,-10 2524,-30 2544,-30 2544,-10 2524,-10"/>
<text text-anchor="start" x="2547.78" y="-15.4" font-family="Times-12" font-size="14.00"> &#160;Bootstrap</text>
<polygon fill="#fdb462" stroke="transparent" points="2621,-10 2621,-30 2641,-30 2641,-10 2621,-10"/>
<text text-anchor="start" x="2644.67" y="-15.4" font-family="Times-12" font-size="14.00"> &#160;Providers</text>
<polygon fill="#fb8072" stroke="transparent" points="2717,-10 2717,-30 2737,-30 2737,-10 2717,-10"/>
<text text-anchor="start" x="2740.73" y="-15.4" font-family="Times-12" font-size="14.00"> &#160;Exports</text>
<g id="clust1" class="cluster">
<title>cluster_AedoModule</title>
<polygon fill="none" stroke="black" stroke-dasharray="1,5" points="8,-70 8,-195 5110,-195 5110,-70 8,-70"/>
</g>
<g id="clust2" class="cluster">
<title>cluster_AedoModule_declarations</title>
<polygon fill="none" stroke="black" points="299,-78 299,-130 5102,-130 5102,-78 299,-78"/>
</g>
<g id="clust29" class="cluster">
<title>cluster_AedoModule_imports</title>
<polygon fill="none" stroke="black" points="16,-78 16,-130 291,-130 291,-78 16,-78"/>
</g>
<!-- AdministratorPageComponent -->
<g id="node1" class="node">
<title>AdministratorPageComponent</title>
<polygon fill="#ffffb3" stroke="black" points="5093.58,-122 4906.42,-122 4906.42,-86 5093.58,-86 5093.58,-122"/>
<text text-anchor="middle" x="5000" y="-99.8" font-family="Times,serif" font-size="14.00">AdministratorPageComponent</text>
</g>
<!-- AedoModule -->
<g id="node27" class="node">
<title>AedoModule</title>
<polygon fill="#8dd3c7" stroke="black" points="2694.87,-187 2691.87,-191 2670.87,-191 2667.87,-187 2605.13,-187 2605.13,-151 2694.87,-151 2694.87,-187"/>
<text text-anchor="middle" x="2650" y="-164.8" font-family="Times,serif" font-size="14.00">AedoModule</text>
</g>
<!-- AdministratorPageComponent&#45;&gt;AedoModule -->
<g id="edge1" class="edge">
<title>AdministratorPageComponent&#45;&gt;AedoModule</title>
<path fill="none" stroke="black" d="M5000,-122.38C5000,-146.28 5000,-185 5000,-185 5000,-185 2705.11,-185 2705.11,-185"/>
<polygon fill="black" stroke="black" points="2705.11,-181.5 2695.11,-185 2705.11,-188.5 2705.11,-181.5"/>
</g>
<!-- CategoriesCardComponent -->
<g id="node2" class="node">
<title>CategoriesCardComponent</title>
<polygon fill="#ffffb3" stroke="black" points="4888.41,-122 4719.59,-122 4719.59,-86 4888.41,-86 4888.41,-122"/>
<text text-anchor="middle" x="4804" y="-99.8" font-family="Times,serif" font-size="14.00">CategoriesCardComponent</text>
</g>
<!-- CategoriesCardComponent&#45;&gt;AedoModule -->
<g id="edge2" class="edge">
<title>CategoriesCardComponent&#45;&gt;AedoModule</title>
<path fill="none" stroke="black" d="M4804,-122.09C4804,-145.13 4804,-182 4804,-182 4804,-182 2704.99,-182 2704.99,-182"/>
<polygon fill="black" stroke="black" points="2704.99,-178.5 2694.99,-182 2704.99,-185.5 2704.99,-178.5"/>
</g>
<!-- CategoryItemComponent -->
<g id="node3" class="node">
<title>CategoryItemComponent</title>
<polygon fill="#ffffb3" stroke="black" points="4702.31,-122 4543.69,-122 4543.69,-86 4702.31,-86 4702.31,-122"/>
<text text-anchor="middle" x="4623" y="-99.8" font-family="Times,serif" font-size="14.00">CategoryItemComponent</text>
</g>
<!-- CategoryItemComponent&#45;&gt;AedoModule -->
<g id="edge3" class="edge">
<title>CategoryItemComponent&#45;&gt;AedoModule</title>
<path fill="none" stroke="black" d="M4623,-122.01C4623,-144.49 4623,-180 4623,-180 4623,-180 2704.92,-180 2704.92,-180"/>
<polygon fill="black" stroke="black" points="2704.92,-176.5 2694.92,-180 2704.92,-183.5 2704.92,-176.5"/>
</g>
<!-- CommentListComponent -->
<g id="node4" class="node">
<title>CommentListComponent</title>
<polygon fill="#ffffb3" stroke="black" points="4526.33,-122 4367.67,-122 4367.67,-86 4526.33,-86 4526.33,-122"/>
<text text-anchor="middle" x="4447" y="-99.8" font-family="Times,serif" font-size="14.00">CommentListComponent</text>
</g>
<!-- CommentListComponent&#45;&gt;AedoModule -->
<g id="edge4" class="edge">
<title>CommentListComponent&#45;&gt;AedoModule</title>
<path fill="none" stroke="black" d="M4447,-122.04C4447,-143.66 4447,-177 4447,-177 4447,-177 2705.32,-177 2705.32,-177"/>
<polygon fill="black" stroke="black" points="2705.32,-173.5 2695.32,-177 2705.32,-180.5 2705.32,-173.5"/>
</g>
<!-- HomePageComponent -->
<g id="node5" class="node">
<title>HomePageComponent</title>
<polygon fill="#ffffb3" stroke="black" points="4349.26,-122 4206.74,-122 4206.74,-86 4349.26,-86 4349.26,-122"/>
<text text-anchor="middle" x="4278" y="-99.8" font-family="Times,serif" font-size="14.00">HomePageComponent</text>
</g>
<!-- HomePageComponent&#45;&gt;AedoModule -->
<g id="edge5" class="edge">
<title>HomePageComponent&#45;&gt;AedoModule</title>
<path fill="none" stroke="black" d="M4278,-122.28C4278,-143.32 4278,-175 4278,-175 4278,-175 2705.24,-175 2705.24,-175"/>
<polygon fill="black" stroke="black" points="2705.24,-171.5 2695.24,-175 2705.24,-178.5 2705.24,-171.5"/>
</g>
<!-- LanguageItemComponent -->
<g id="node6" class="node">
<title>LanguageItemComponent</title>
<polygon fill="#ffffb3" stroke="black" points="4189.19,-122 4026.81,-122 4026.81,-86 4189.19,-86 4189.19,-122"/>
<text text-anchor="middle" x="4108" y="-99.8" font-family="Times,serif" font-size="14.00">LanguageItemComponent</text>
</g>
<!-- LanguageItemComponent&#45;&gt;AedoModule -->
<g id="edge6" class="edge">
<title>LanguageItemComponent&#45;&gt;AedoModule</title>
<path fill="none" stroke="black" d="M4108,-122.22C4108,-142.37 4108,-172 4108,-172 4108,-172 2705.23,-172 2705.23,-172"/>
<polygon fill="black" stroke="black" points="2705.23,-168.5 2695.23,-172 2705.23,-175.5 2705.23,-168.5"/>
</g>
<!-- ListAdminComponent -->
<g id="node7" class="node">
<title>ListAdminComponent</title>
<polygon fill="#ffffb3" stroke="black" points="4009,-122 3867,-122 3867,-86 4009,-86 4009,-122"/>
<text text-anchor="middle" x="3938" y="-99.8" font-family="Times,serif" font-size="14.00">ListAdminComponent</text>
</g>
<!-- ListAdminComponent&#45;&gt;AedoModule -->
<g id="edge7" class="edge">
<title>ListAdminComponent&#45;&gt;AedoModule</title>
<path fill="none" stroke="black" d="M3938,-122.11C3938,-141.34 3938,-169 3938,-169 3938,-169 2705.09,-169 2705.09,-169"/>
<polygon fill="black" stroke="black" points="2705.09,-165.5 2695.09,-169 2705.09,-172.5 2705.09,-165.5"/>
</g>
<!-- ListCategoriesComponent -->
<g id="node8" class="node">
<title>ListCategoriesComponent</title>
<polygon fill="#ffffb3" stroke="black" points="3849.48,-122 3686.52,-122 3686.52,-86 3849.48,-86 3849.48,-122"/>
<text text-anchor="middle" x="3768" y="-99.8" font-family="Times,serif" font-size="14.00">ListCategoriesComponent</text>
</g>
<!-- ListCategoriesComponent&#45;&gt;AedoModule -->
<g id="edge8" class="edge">
<title>ListCategoriesComponent&#45;&gt;AedoModule</title>
<path fill="none" stroke="black" d="M3768,-122.22C3768,-140.83 3768,-167 3768,-167 3768,-167 2705.21,-167 2705.21,-167"/>
<polygon fill="black" stroke="black" points="2705.21,-163.5 2695.21,-167 2705.21,-170.5 2705.21,-163.5"/>
</g>
<!-- ListLanguagesComponent -->
<g id="node9" class="node">
<title>ListLanguagesComponent</title>
<polygon fill="#ffffb3" stroke="black" points="3668.75,-122 3505.25,-122 3505.25,-86 3668.75,-86 3668.75,-122"/>
<text text-anchor="middle" x="3587" y="-99.8" font-family="Times,serif" font-size="14.00">ListLanguagesComponent</text>
</g>
<!-- ListLanguagesComponent&#45;&gt;AedoModule -->
<g id="edge9" class="edge">
<title>ListLanguagesComponent&#45;&gt;AedoModule</title>
<path fill="none" stroke="black" d="M3587,-122C3587,-139.68 3587,-164 3587,-164 3587,-164 2704.88,-164 2704.88,-164"/>
<polygon fill="black" stroke="black" points="2704.88,-160.5 2694.88,-164 2704.88,-167.5 2704.88,-160.5"/>
</g>
<!-- ListUserComponent -->
<g id="node10" class="node">
<title>ListUserComponent</title>
<polygon fill="#ffffb3" stroke="black" points="3486.54,-122 3357.46,-122 3357.46,-86 3486.54,-86 3486.54,-122"/>
<text text-anchor="middle" x="3422" y="-99.8" font-family="Times,serif" font-size="14.00">ListUserComponent</text>
</g>
<!-- ListUserComponent&#45;&gt;AedoModule -->
<g id="edge10" class="edge">
<title>ListUserComponent&#45;&gt;AedoModule</title>
<path fill="none" stroke="black" d="M3422,-122.03C3422,-139.06 3422,-162 3422,-162 3422,-162 2705.13,-162 2705.13,-162"/>
<polygon fill="black" stroke="black" points="2705.13,-158.5 2695.13,-162 2705.13,-165.5 2705.13,-158.5"/>
</g>
<!-- LoginDialogComponent -->
<g id="node11" class="node">
<title>LoginDialogComponent</title>
<polygon fill="#ffffb3" stroke="black" points="3339.38,-122 3186.62,-122 3186.62,-86 3339.38,-86 3339.38,-122"/>
<text text-anchor="middle" x="3263" y="-99.8" font-family="Times,serif" font-size="14.00">LoginDialogComponent</text>
</g>
<!-- LoginDialogComponent&#45;&gt;AedoModule -->
<g id="edge11" class="edge">
<title>LoginDialogComponent&#45;&gt;AedoModule</title>
<path fill="none" stroke="black" d="M3263,-122.01C3263,-138.05 3263,-159 3263,-159 3263,-159 2705.08,-159 2705.08,-159"/>
<polygon fill="black" stroke="black" points="2705.08,-155.5 2695.08,-159 2705.08,-162.5 2705.08,-155.5"/>
</g>
<!-- MainViewPageComponent -->
<g id="node12" class="node">
<title>MainViewPageComponent</title>
<polygon fill="#ffffb3" stroke="black" points="3168.41,-122 2999.59,-122 2999.59,-86 3168.41,-86 3168.41,-122"/>
<text text-anchor="middle" x="3084" y="-99.8" font-family="Times,serif" font-size="14.00">MainViewPageComponent</text>
</g>
<!-- MainViewPageComponent&#45;&gt;AedoModule -->
<g id="edge12" class="edge">
<title>MainViewPageComponent&#45;&gt;AedoModule</title>
<path fill="none" stroke="black" d="M3084,-122.24C3084,-137.57 3084,-157 3084,-157 3084,-157 2705.22,-157 2705.22,-157"/>
<polygon fill="black" stroke="black" points="2705.22,-153.5 2695.22,-157 2705.22,-160.5 2705.22,-153.5"/>
</g>
<!-- MapComponent -->
<g id="node13" class="node">
<title>MapComponent</title>
<polygon fill="#ffffb3" stroke="black" points="2981.49,-122 2874.51,-122 2874.51,-86 2981.49,-86 2981.49,-122"/>
<text text-anchor="middle" x="2928" y="-99.8" font-family="Times,serif" font-size="14.00">MapComponent</text>
</g>
<!-- MapComponent&#45;&gt;AedoModule -->
<g id="edge13" class="edge">
<title>MapComponent&#45;&gt;AedoModule</title>
<path fill="none" stroke="black" d="M2928,-122.05C2928,-136.37 2928,-154 2928,-154 2928,-154 2704.97,-154 2704.97,-154"/>
<polygon fill="black" stroke="black" points="2704.97,-150.5 2694.97,-154 2704.97,-157.5 2704.97,-150.5"/>
</g>
<!-- OdiseaDetailsMapCardComponent -->
<g id="node14" class="node">
<title>OdiseaDetailsMapCardComponent</title>
<polygon fill="#ffffb3" stroke="black" points="2856.23,-122 2643.77,-122 2643.77,-86 2856.23,-86 2856.23,-122"/>
<text text-anchor="middle" x="2750" y="-99.8" font-family="Times,serif" font-size="14.00">OdiseaDetailsMapCardComponent</text>
</g>
<!-- OdiseaDetailsMapCardComponent&#45;&gt;AedoModule -->
<g id="edge14" class="edge">
<title>OdiseaDetailsMapCardComponent&#45;&gt;AedoModule</title>
<path fill="none" stroke="black" d="M2669.29,-122.11C2669.29,-122.11 2669.29,-140.99 2669.29,-140.99"/>
<polygon fill="black" stroke="black" points="2665.79,-140.99 2669.29,-150.99 2672.79,-140.99 2665.79,-140.99"/>
</g>
<!-- OdiseaFormComponent -->
<g id="node15" class="node">
<title>OdiseaFormComponent</title>
<polygon fill="#ffffb3" stroke="black" points="2625.04,-122 2474.96,-122 2474.96,-86 2625.04,-86 2625.04,-122"/>
<text text-anchor="middle" x="2550" y="-99.8" font-family="Times,serif" font-size="14.00">OdiseaFormComponent</text>
</g>
<!-- OdiseaFormComponent&#45;&gt;AedoModule -->
<g id="edge15" class="edge">
<title>OdiseaFormComponent&#45;&gt;AedoModule</title>
<path fill="none" stroke="black" d="M2615.17,-122.11C2615.17,-122.11 2615.17,-140.99 2615.17,-140.99"/>
<polygon fill="black" stroke="black" points="2611.67,-140.99 2615.17,-150.99 2618.67,-140.99 2611.67,-140.99"/>
</g>
<!-- OdiseaItemCardComponent -->
<g id="node16" class="node">
<title>OdiseaItemCardComponent</title>
<polygon fill="#ffffb3" stroke="black" points="2456.57,-122 2283.43,-122 2283.43,-86 2456.57,-86 2456.57,-122"/>
<text text-anchor="middle" x="2370" y="-99.8" font-family="Times,serif" font-size="14.00">OdiseaItemCardComponent</text>
</g>
<!-- OdiseaItemCardComponent&#45;&gt;AedoModule -->
<g id="edge16" class="edge">
<title>OdiseaItemCardComponent&#45;&gt;AedoModule</title>
<path fill="none" stroke="black" d="M2370,-122.05C2370,-136.37 2370,-154 2370,-154 2370,-154 2595.01,-154 2595.01,-154"/>
<polygon fill="black" stroke="black" points="2595.01,-157.5 2605.01,-154 2595.01,-150.5 2595.01,-157.5"/>
</g>
<!-- OdiseaProfileDetailsComponent -->
<g id="node17" class="node">
<title>OdiseaProfileDetailsComponent</title>
<polygon fill="#ffffb3" stroke="black" points="2264.96,-122 2067.04,-122 2067.04,-86 2264.96,-86 2264.96,-122"/>
<text text-anchor="middle" x="2166" y="-99.8" font-family="Times,serif" font-size="14.00">OdiseaProfileDetailsComponent</text>
</g>
<!-- OdiseaProfileDetailsComponent&#45;&gt;AedoModule -->
<g id="edge17" class="edge">
<title>OdiseaProfileDetailsComponent&#45;&gt;AedoModule</title>
<path fill="none" stroke="black" d="M2166,-122.24C2166,-137.57 2166,-157 2166,-157 2166,-157 2594.9,-157 2594.9,-157"/>
<polygon fill="black" stroke="black" points="2594.9,-160.5 2604.9,-157 2594.9,-153.5 2594.9,-160.5"/>
</g>
<!-- OdiseaProfileOdiseoComponent -->
<g id="node18" class="node">
<title>OdiseaProfileOdiseoComponent</title>
<polygon fill="#ffffb3" stroke="black" points="2048.96,-122 1851.04,-122 1851.04,-86 2048.96,-86 2048.96,-122"/>
<text text-anchor="middle" x="1950" y="-99.8" font-family="Times,serif" font-size="14.00">OdiseaProfileOdiseoComponent</text>
</g>
<!-- OdiseaProfileOdiseoComponent&#45;&gt;AedoModule -->
<g id="edge18" class="edge">
<title>OdiseaProfileOdiseoComponent&#45;&gt;AedoModule</title>
<path fill="none" stroke="black" d="M1950,-122.01C1950,-138.05 1950,-159 1950,-159 1950,-159 2594.88,-159 2594.88,-159"/>
<polygon fill="black" stroke="black" points="2594.88,-162.5 2604.88,-159 2594.88,-155.5 2594.88,-162.5"/>
</g>
<!-- OdiseaProfilePageComponent -->
<g id="node19" class="node">
<title>OdiseaProfilePageComponent</title>
<polygon fill="#ffffb3" stroke="black" points="1832.52,-122 1647.48,-122 1647.48,-86 1832.52,-86 1832.52,-122"/>
<text text-anchor="middle" x="1740" y="-99.8" font-family="Times,serif" font-size="14.00">OdiseaProfilePageComponent</text>
</g>
<!-- OdiseaProfilePageComponent&#45;&gt;AedoModule -->
<g id="edge19" class="edge">
<title>OdiseaProfilePageComponent&#45;&gt;AedoModule</title>
<path fill="none" stroke="black" d="M1740,-122.03C1740,-139.06 1740,-162 1740,-162 1740,-162 2594.87,-162 2594.87,-162"/>
<polygon fill="black" stroke="black" points="2594.87,-165.5 2604.87,-162 2594.87,-158.5 2594.87,-165.5"/>
</g>
<!-- OdiseaRegisterPageComponent -->
<g id="node20" class="node">
<title>OdiseaRegisterPageComponent</title>
<polygon fill="#ffffb3" stroke="black" points="1629.07,-122 1434.93,-122 1434.93,-86 1629.07,-86 1629.07,-122"/>
<text text-anchor="middle" x="1532" y="-99.8" font-family="Times,serif" font-size="14.00">OdiseaRegisterPageComponent</text>
</g>
<!-- OdiseaRegisterPageComponent&#45;&gt;AedoModule -->
<g id="edge20" class="edge">
<title>OdiseaRegisterPageComponent&#45;&gt;AedoModule</title>
<path fill="none" stroke="black" d="M1532,-122C1532,-139.68 1532,-164 1532,-164 1532,-164 2594.79,-164 2594.79,-164"/>
<polygon fill="black" stroke="black" points="2594.79,-167.5 2604.79,-164 2594.79,-160.5 2594.79,-167.5"/>
</g>
<!-- ProfileCardComponent -->
<g id="node21" class="node">
<title>ProfileCardComponent</title>
<polygon fill="#ffffb3" stroke="black" points="1417.14,-122 1270.86,-122 1270.86,-86 1417.14,-86 1417.14,-122"/>
<text text-anchor="middle" x="1344" y="-99.8" font-family="Times,serif" font-size="14.00">ProfileCardComponent</text>
</g>
<!-- ProfileCardComponent&#45;&gt;AedoModule -->
<g id="edge21" class="edge">
<title>ProfileCardComponent&#45;&gt;AedoModule</title>
<path fill="none" stroke="black" d="M1344,-122.22C1344,-140.83 1344,-167 1344,-167 1344,-167 2595.04,-167 2595.04,-167"/>
<polygon fill="black" stroke="black" points="2595.04,-170.5 2605.04,-167 2595.04,-163.5 2595.04,-170.5"/>
</g>
<!-- ProfileViewPageComponent -->
<g id="node22" class="node">
<title>ProfileViewPageComponent</title>
<polygon fill="#ffffb3" stroke="black" points="1252.46,-122 1075.54,-122 1075.54,-86 1252.46,-86 1252.46,-122"/>
<text text-anchor="middle" x="1164" y="-99.8" font-family="Times,serif" font-size="14.00">ProfileViewPageComponent</text>
</g>
<!-- ProfileViewPageComponent&#45;&gt;AedoModule -->
<g id="edge22" class="edge">
<title>ProfileViewPageComponent&#45;&gt;AedoModule</title>
<path fill="none" stroke="black" d="M1164,-122.11C1164,-141.34 1164,-169 1164,-169 1164,-169 2595.12,-169 2595.12,-169"/>
<polygon fill="black" stroke="black" points="2595.12,-172.5 2605.12,-169 2595.12,-165.5 2595.12,-172.5"/>
</g>
<!-- RegisterDialogComponent -->
<g id="node23" class="node">
<title>RegisterDialogComponent</title>
<polygon fill="#ffffb3" stroke="black" points="1057.09,-122 890.91,-122 890.91,-86 1057.09,-86 1057.09,-122"/>
<text text-anchor="middle" x="974" y="-99.8" font-family="Times,serif" font-size="14.00">RegisterDialogComponent</text>
</g>
<!-- RegisterDialogComponent&#45;&gt;AedoModule -->
<g id="edge23" class="edge">
<title>RegisterDialogComponent&#45;&gt;AedoModule</title>
<path fill="none" stroke="black" d="M974,-122.22C974,-142.37 974,-172 974,-172 974,-172 2594.74,-172 2594.74,-172"/>
<polygon fill="black" stroke="black" points="2594.74,-175.5 2604.74,-172 2594.74,-168.5 2594.74,-175.5"/>
</g>
<!-- ResetEmailDialogComponent -->
<g id="node24" class="node">
<title>ResetEmailDialogComponent</title>
<polygon fill="#ffffb3" stroke="black" points="872.97,-122 689.03,-122 689.03,-86 872.97,-86 872.97,-122"/>
<text text-anchor="middle" x="781" y="-99.8" font-family="Times,serif" font-size="14.00">ResetEmailDialogComponent</text>
</g>
<!-- ResetEmailDialogComponent&#45;&gt;AedoModule -->
<g id="edge24" class="edge">
<title>ResetEmailDialogComponent&#45;&gt;AedoModule</title>
<path fill="none" stroke="black" d="M781,-122.28C781,-143.32 781,-175 781,-175 781,-175 2594.73,-175 2594.73,-175"/>
<polygon fill="black" stroke="black" points="2594.73,-178.5 2604.73,-175 2594.73,-171.5 2594.73,-178.5"/>
</g>
<!-- ResetPasswordDialogComponent -->
<g id="node25" class="node">
<title>ResetPasswordDialogComponent</title>
<polygon fill="#ffffb3" stroke="black" points="671.19,-122 466.81,-122 466.81,-86 671.19,-86 671.19,-122"/>
<text text-anchor="middle" x="569" y="-99.8" font-family="Times,serif" font-size="14.00">ResetPasswordDialogComponent</text>
</g>
<!-- ResetPasswordDialogComponent&#45;&gt;AedoModule -->
<g id="edge25" class="edge">
<title>ResetPasswordDialogComponent&#45;&gt;AedoModule</title>
<path fill="none" stroke="black" d="M569,-122.04C569,-143.66 569,-177 569,-177 569,-177 2595.09,-177 2595.09,-177"/>
<polygon fill="black" stroke="black" points="2595.09,-180.5 2605.09,-177 2595.09,-173.5 2595.09,-180.5"/>
</g>
<!-- UserStatusComponent -->
<g id="node26" class="node">
<title>UserStatusComponent</title>
<polygon fill="#ffffb3" stroke="black" points="448.98,-122 307.02,-122 307.02,-86 448.98,-86 448.98,-122"/>
<text text-anchor="middle" x="378" y="-99.8" font-family="Times,serif" font-size="14.00">UserStatusComponent</text>
</g>
<!-- UserStatusComponent&#45;&gt;AedoModule -->
<g id="edge26" class="edge">
<title>UserStatusComponent&#45;&gt;AedoModule</title>
<path fill="none" stroke="black" d="M378,-122.01C378,-144.49 378,-180 378,-180 378,-180 2595.13,-180 2595.13,-180"/>
<polygon fill="black" stroke="black" points="2595.13,-183.5 2605.13,-180 2595.13,-176.5 2595.13,-183.5"/>
</g>
<!-- AedoRoutingModule -->
<g id="node28" class="node">
<title>AedoRoutingModule</title>
<polygon fill="#8dd3c7" stroke="black" points="283.49,-122 280.49,-126 259.49,-126 256.49,-122 148.51,-122 148.51,-86 283.49,-86 283.49,-122"/>
<text text-anchor="middle" x="216" y="-99.8" font-family="Times,serif" font-size="14.00">AedoRoutingModule</text>
</g>
<!-- AedoRoutingModule&#45;&gt;AedoModule -->
<g id="edge27" class="edge">
<title>AedoRoutingModule&#45;&gt;AedoModule</title>
<path fill="none" stroke="black" d="M216,-122.09C216,-145.13 216,-182 216,-182 216,-182 2594.88,-182 2594.88,-182"/>
<polygon fill="black" stroke="black" points="2594.88,-185.5 2604.88,-182 2594.88,-178.5 2594.88,-185.5"/>
</g>
<!-- MaterialModule -->
<g id="node29" class="node">
<title>MaterialModule</title>
<polygon fill="#8dd3c7" stroke="black" points="130.47,-122 127.47,-126 106.47,-126 103.47,-122 23.53,-122 23.53,-86 130.47,-86 130.47,-122"/>
<text text-anchor="middle" x="77" y="-99.8" font-family="Times,serif" font-size="14.00">MaterialModule</text>
</g>
<!-- MaterialModule&#45;&gt;AedoModule -->
<g id="edge28" class="edge">
<title>MaterialModule&#45;&gt;AedoModule</title>
<path fill="none" stroke="black" d="M77,-122.38C77,-146.28 77,-185 77,-185 77,-185 2595.07,-185 2595.07,-185"/>
<polygon fill="black" stroke="black" points="2595.07,-188.5 2605.07,-185 2595.07,-181.5 2595.07,-188.5"/>
</g>
</g>
</svg>
