<?xml version="1.0" encoding="UTF-8" standalone="no"?>
<!DOCTYPE svg PUBLIC "-//W3C//DTD SVG 1.1//EN"
 "http://www.w3.org/Graphics/SVG/1.1/DTD/svg11.dtd">
<!-- Generated by graphviz version 2.47.0 (20210316.0004)
 -->
<!-- Title: dependencies Pages: 1 -->
<svg width="1479pt" height="284pt"
 viewBox="0.00 0.00 1479.00 284.00" xmlns="http://www.w3.org/2000/svg" xmlns:xlink="http://www.w3.org/1999/xlink">
<g id="graph0" class="graph" transform="scale(1 1) rotate(0) translate(4 280)">
<title>dependencies</title>
<polygon fill="white" stroke="transparent" points="-4,4 -4,-280 1475,-280 1475,4 -4,4"/>
<text text-anchor="start" x="714.51" y="-42.4" font-family="Times-12" font-weight="bold" font-size="14.00">Legend</text>
<polygon fill="#ffffb3" stroke="transparent" points="501.5,-10 501.5,-30 521.5,-30 521.5,-10 501.5,-10"/>
<text text-anchor="start" x="525.13" y="-15.4" font-family="Times-12" font-size="14.00"> &#160;Declarations</text>
<polygon fill="#8dd3c7" stroke="transparent" points="614.5,-10 614.5,-30 634.5,-30 634.5,-10 614.5,-10"/>
<text text-anchor="start" x="638.23" y="-15.4" font-family="Times-12" font-size="14.00"> &#160;Module</text>
<polygon fill="#80b1d3" stroke="transparent" points="700.5,-10 700.5,-30 720.5,-30 720.5,-10 700.5,-10"/>
<text text-anchor="start" x="724.28" y="-15.4" font-family="Times-12" font-size="14.00"> &#160;Bootstrap</text>
<polygon fill="#fdb462" stroke="transparent" points="797.5,-10 797.5,-30 817.5,-30 817.5,-10 797.5,-10"/>
<text text-anchor="start" x="821.17" y="-15.4" font-family="Times-12" font-size="14.00"> &#160;Providers</text>
<polygon fill="#fb8072" stroke="transparent" points="893.5,-10 893.5,-30 913.5,-30 913.5,-10 893.5,-10"/>
<text text-anchor="start" x="917.23" y="-15.4" font-family="Times-12" font-size="14.00"> &#160;Exports</text>
<g id="clust1" class="cluster">
<title>cluster_AppModule</title>
<polygon fill="none" stroke="black" stroke-dasharray="1,5" points="8,-70 8,-268 1463,-268 1463,-70 8,-70"/>
</g>
<g id="clust5" class="cluster">
<title>cluster_AppModule_imports</title>
<polygon fill="none" stroke="black" points="302,-78 302,-130 1455,-130 1455,-78 302,-78"/>
</g>
<g id="clust7" class="cluster">
<title>cluster_AppModule_bootstrap</title>
<polygon fill="none" stroke="black" points="591,-208 591,-260 715,-260 715,-208 591,-208"/>
</g>
<g id="clust2" class="cluster">
<title>cluster_AppModule_declarations</title>
<polygon fill="none" stroke="black" points="16,-78 16,-130 294,-130 294,-78 16,-78"/>
</g>
<!-- AppComponent -->
<g id="node1" class="node">
<title>AppComponent</title>
<polygon fill="#ffffb3" stroke="black" points="285.94,-122 180.06,-122 180.06,-86 285.94,-86 285.94,-122"/>
<text text-anchor="middle" x="233" y="-99.8" font-family="Times,serif" font-size="14.00">AppComponent</text>
</g>
<!-- AppModule -->
<g id="node3" class="node">
<title>AppModule</title>
<polygon fill="#8dd3c7" stroke="black" points="694.66,-187 691.66,-191 670.66,-191 667.66,-187 611.34,-187 611.34,-151 694.66,-151 694.66,-187"/>
<text text-anchor="middle" x="653" y="-164.8" font-family="Times,serif" font-size="14.00">AppModule</text>
</g>
<!-- AppComponent&#45;&gt;AppModule -->
<g id="edge1" class="edge">
<title>AppComponent&#45;&gt;AppModule</title>
<path fill="none" stroke="black" d="M233,-122.11C233,-141.34 233,-169 233,-169 233,-169 601.19,-169 601.19,-169"/>
<polygon fill="black" stroke="black" points="601.19,-172.5 611.19,-169 601.19,-165.5 601.19,-172.5"/>
</g>
<!-- ErrorPageComponent -->
<g id="node2" class="node">
<title>ErrorPageComponent</title>
<polygon fill="#ffffb3" stroke="black" points="162.08,-122 23.92,-122 23.92,-86 162.08,-86 162.08,-122"/>
<text text-anchor="middle" x="93" y="-99.8" font-family="Times,serif" font-size="14.00">ErrorPageComponent</text>
</g>
<!-- ErrorPageComponent&#45;&gt;AppModule -->
<g id="edge2" class="edge">
<title>ErrorPageComponent&#45;&gt;AppModule</title>
<path fill="none" stroke="black" d="M93,-122.29C93,-144.21 93,-178 93,-178 93,-178 600.91,-178 600.91,-178"/>
<polygon fill="black" stroke="black" points="600.91,-181.5 610.91,-178 600.91,-174.5 600.91,-181.5"/>
</g>
<!-- AppComponent  -->
<g id="node9" class="node">
<title>AppComponent </title>
<polygon fill="#80b1d3" stroke="black" points="707.44,-252 598.56,-252 598.56,-216 707.44,-216 707.44,-252"/>
<text text-anchor="middle" x="653" y="-229.8" font-family="Times,serif" font-size="14.00">AppComponent </text>
</g>
<!-- AppModule&#45;&gt;AppComponent  -->
<g id="edge8" class="edge">
<title>AppModule&#45;&gt;AppComponent </title>
<path fill="none" stroke="black" stroke-dasharray="1,5" d="M653,-187.11C653,-187.11 653,-205.99 653,-205.99"/>
<polygon fill="black" stroke="black" points="649.5,-205.99 653,-215.99 656.5,-205.99 649.5,-205.99"/>
</g>
<!-- AppRoutingModule -->
<g id="node4" class="node">
<title>AppRoutingModule</title>
<polygon fill="#8dd3c7" stroke="black" points="1447.27,-122 1444.27,-126 1423.27,-126 1420.27,-122 1318.73,-122 1318.73,-86 1447.27,-86 1447.27,-122"/>
<text text-anchor="middle" x="1383" y="-99.8" font-family="Times,serif" font-size="14.00">AppRoutingModule</text>
</g>
<!-- AppRoutingModule&#45;&gt;AppModule -->
<g id="edge3" class="edge">
<title>AppRoutingModule&#45;&gt;AppModule</title>
<path fill="none" stroke="black" d="M1383,-122.29C1383,-144.21 1383,-178 1383,-178 1383,-178 704.87,-178 704.87,-178"/>
<polygon fill="black" stroke="black" points="704.87,-174.5 694.87,-178 704.87,-181.5 704.87,-174.5"/>
</g>
<!-- provideAuth(() =&gt; getAuth()) -->
<g id="node5" class="node">
<title>provideAuth(() =&gt; getAuth())</title>
<polygon fill="#8dd3c7" stroke="black" points="1300.12,-122 1297.12,-126 1276.12,-126 1273.12,-122 1117.88,-122 1117.88,-86 1300.12,-86 1300.12,-122"/>
<text text-anchor="middle" x="1209" y="-99.8" font-family="Times,serif" font-size="14.00">provideAuth(() =&gt; getAuth())</text>
</g>
<!-- provideAuth(() =&gt; getAuth())&#45;&gt;AppModule -->
<g id="edge4" class="edge">
<title>provideAuth(() =&gt; getAuth())&#45;&gt;AppModule</title>
<path fill="none" stroke="black" d="M1209,-122.11C1209,-141.34 1209,-169 1209,-169 1209,-169 704.79,-169 704.79,-169"/>
<polygon fill="black" stroke="black" points="704.79,-165.5 694.79,-169 704.79,-172.5 704.79,-165.5"/>
</g>
<!-- provideFirebaseApp(() =&gt; initializeApp(environment -->
<g id="node6" class="node">
<title>provideFirebaseApp(() =&gt; initializeApp(environment</title>
<polygon fill="#8dd3c7" stroke="black" points="1099.58,-122 1096.58,-126 1075.58,-126 1072.58,-122 784.42,-122 784.42,-86 1099.58,-86 1099.58,-122"/>
<text text-anchor="middle" x="942" y="-99.8" font-family="Times,serif" font-size="14.00">provideFirebaseApp(() =&gt; initializeApp(environment</text>
</g>
<!-- provideFirebaseApp(() =&gt; initializeApp(environment&#45;&gt;AppModule -->
<g id="edge5" class="edge">
<title>provideFirebaseApp(() =&gt; initializeApp(environment&#45;&gt;AppModule</title>
<path fill="none" stroke="black" d="M942,-122.03C942,-138.4 942,-160 942,-160 942,-160 704.71,-160 704.71,-160"/>
<polygon fill="black" stroke="black" points="704.71,-156.5 694.71,-160 704.71,-163.5 704.71,-156.5"/>
</g>
<!-- provideFirestore(() =&gt; getFirestore()) -->
<g id="node7" class="node">
<title>provideFirestore(() =&gt; getFirestore())</title>
<polygon fill="#8dd3c7" stroke="black" points="766.14,-122 763.14,-126 742.14,-126 739.14,-122 539.86,-122 539.86,-86 766.14,-86 766.14,-122"/>
<text text-anchor="middle" x="653" y="-99.8" font-family="Times,serif" font-size="14.00">provideFirestore(() =&gt; getFirestore())</text>
</g>
<!-- provideFirestore(() =&gt; getFirestore())&#45;&gt;AppModule -->
<g id="edge6" class="edge">
<title>provideFirestore(() =&gt; getFirestore())&#45;&gt;AppModule</title>
<path fill="none" stroke="black" d="M653,-122.11C653,-122.11 653,-140.99 653,-140.99"/>
<polygon fill="black" stroke="black" points="649.5,-140.99 653,-150.99 656.5,-140.99 649.5,-140.99"/>
</g>
<!-- provideStorage(() =&gt; getStorage()) -->
<g id="node8" class="node">
<title>provideStorage(() =&gt; getStorage())</title>
<polygon fill="#8dd3c7" stroke="black" points="522.15,-122 519.15,-126 498.15,-126 495.15,-122 309.85,-122 309.85,-86 522.15,-86 522.15,-122"/>
<text text-anchor="middle" x="416" y="-99.8" font-family="Times,serif" font-size="14.00">provideStorage(() =&gt; getStorage())</text>
</g>
<!-- provideStorage(() =&gt; getStorage())&#45;&gt;AppModule -->
<g id="edge7" class="edge">
<title>provideStorage(() =&gt; getStorage())&#45;&gt;AppModule</title>
<path fill="none" stroke="black" d="M416,-122.03C416,-138.4 416,-160 416,-160 416,-160 601.17,-160 601.17,-160"/>
<polygon fill="black" stroke="black" points="601.17,-163.5 611.17,-160 601.17,-156.5 601.17,-163.5"/>
</g>
</g>
</svg>
