<?xml version="1.0" encoding="UTF-8" standalone="no"?>
<!DOCTYPE svg PUBLIC "-//W3C//DTD SVG 1.1//EN"
 "http://www.w3.org/Graphics/SVG/1.1/DTD/svg11.dtd">
<!-- Generated by graphviz version 2.47.0 (20210316.0004)
 -->
<!-- Title: dependencies Pages: 1 -->
<svg width="6589pt" height="284pt"
 viewBox="0.00 0.00 6589.00 284.00" xmlns="http://www.w3.org/2000/svg" xmlns:xlink="http://www.w3.org/1999/xlink">
<g id="graph0" class="graph" transform="scale(1 1) rotate(0) translate(4 280)">
<title>dependencies</title>
<polygon fill="white" stroke="transparent" points="-4,4 -4,-280 6585,-280 6585,4 -4,4"/>
<text text-anchor="start" x="3269.51" y="-42.4" font-family="Times-12" font-weight="bold" font-size="14.00">Legend</text>
<polygon fill="#ffffb3" stroke="transparent" points="3056.5,-10 3056.5,-30 3076.5,-30 3076.5,-10 3056.5,-10"/>
<text text-anchor="start" x="3080.13" y="-15.4" font-family="Times-12" font-size="14.00"> &#160;Declarations</text>
<polygon fill="#8dd3c7" stroke="transparent" points="3169.5,-10 3169.5,-30 3189.5,-30 3189.5,-10 3169.5,-10"/>
<text text-anchor="start" x="3193.23" y="-15.4" font-family="Times-12" font-size="14.00"> &#160;Module</text>
<polygon fill="#80b1d3" stroke="transparent" points="3255.5,-10 3255.5,-30 3275.5,-30 3275.5,-10 3255.5,-10"/>
<text text-anchor="start" x="3279.28" y="-15.4" font-family="Times-12" font-size="14.00"> &#160;Bootstrap</text>
<polygon fill="#fdb462" stroke="transparent" points="3352.5,-10 3352.5,-30 3372.5,-30 3372.5,-10 3352.5,-10"/>
<text text-anchor="start" x="3376.17" y="-15.4" font-family="Times-12" font-size="14.00"> &#160;Providers</text>
<polygon fill="#fb8072" stroke="transparent" points="3448.5,-10 3448.5,-30 3468.5,-30 3468.5,-10 3448.5,-10"/>
<text text-anchor="start" x="3472.23" y="-15.4" font-family="Times-12" font-size="14.00"> &#160;Exports</text>
<g id="clust1" class="cluster">
<title>cluster_AedoModule</title>
<polygon fill="none" stroke="black" stroke-dasharray="1,5" points="8,-70 8,-195 5110,-195 5110,-70 8,-70"/>
</g>
<g id="clust2" class="cluster">
<title>cluster_AedoModule_declarations</title>
<polygon fill="none" stroke="black" points="299,-78 299,-130 5102,-130 5102,-78 299,-78"/>
</g>
<g id="clust29" class="cluster">
<title>cluster_AedoModule_imports</title>
<polygon fill="none" stroke="black" points="16,-78 16,-130 291,-130 291,-78 16,-78"/>
</g>
<g id="clust39" class="cluster">
<title>cluster_AppModule</title>
<polygon fill="none" stroke="black" stroke-dasharray="1,5" points="5118,-70 5118,-268 6573,-268 6573,-70 5118,-70"/>
</g>
<g id="clust40" class="cluster">
<title>cluster_AppModule_declarations</title>
<polygon fill="none" stroke="black" points="6287,-78 6287,-130 6565,-130 6565,-78 6287,-78"/>
</g>
<g id="clust43" class="cluster">
<title>cluster_AppModule_imports</title>
<polygon fill="none" stroke="black" points="5126,-78 5126,-130 6279,-130 6279,-78 5126,-78"/>
</g>
<g id="clust45" class="cluster">
<title>cluster_AppModule_bootstrap</title>
<polygon fill="none" stroke="black" points="5971,-208 5971,-260 6095,-260 6095,-208 5971,-208"/>
</g>
<!-- AdministratorPageComponent -->
<g id="node1" class="node">
<title>AdministratorPageComponent</title>
<polygon fill="#ffffb3" stroke="black" points="5093.58,-122 4906.42,-122 4906.42,-86 5093.58,-86 5093.58,-122"/>
<text text-anchor="middle" x="5000" y="-99.8" font-family="Times,serif" font-size="14.00">AdministratorPageComponent</text>
</g>
<!-- AedoModule -->
<g id="node27" class="node">
<title>AedoModule</title>
<polygon fill="#8dd3c7" stroke="black" points="2694.87,-187 2691.87,-191 2670.87,-191 2667.87,-187 2605.13,-187 2605.13,-151 2694.87,-151 2694.87,-187"/>
<text text-anchor="middle" x="2650" y="-164.8" font-family="Times,serif" font-size="14.00">AedoModule</text>
</g>
<!-- AdministratorPageComponent&#45;&gt;AedoModule -->
<g id="edge1" class="edge">
<title>AdministratorPageComponent&#45;&gt;AedoModule</title>
<path fill="none" stroke="black" d="M5000,-122.16C5000,-144.35 5000,-179 5000,-179 5000,-179 2705.11,-179 2705.11,-179"/>
<polygon fill="black" stroke="black" points="2705.11,-175.5 2695.11,-179 2705.11,-182.5 2705.11,-175.5"/>
</g>
<!-- CategoriesCardComponent -->
<g id="node2" class="node">
<title>CategoriesCardComponent</title>
<polygon fill="#ffffb3" stroke="black" points="4888.41,-122 4719.59,-122 4719.59,-86 4888.41,-86 4888.41,-122"/>
<text text-anchor="middle" x="4804" y="-99.8" font-family="Times,serif" font-size="14.00">CategoriesCardComponent</text>
</g>
<!-- CategoriesCardComponent&#45;&gt;AedoModule -->
<g id="edge2" class="edge">
<title>CategoriesCardComponent&#45;&gt;AedoModule</title>
<path fill="none" stroke="black" d="M4804,-122.04C4804,-143.66 4804,-177 4804,-177 4804,-177 2704.99,-177 2704.99,-177"/>
<polygon fill="black" stroke="black" points="2704.99,-173.5 2694.99,-177 2704.99,-180.5 2704.99,-173.5"/>
</g>
<!-- CategoryItemComponent -->
<g id="node3" class="node">
<title>CategoryItemComponent</title>
<polygon fill="#ffffb3" stroke="black" points="4702.31,-122 4543.69,-122 4543.69,-86 4702.31,-86 4702.31,-122"/>
<text text-anchor="middle" x="4623" y="-99.8" font-family="Times,serif" font-size="14.00">CategoryItemComponent</text>
</g>
<!-- CategoryItemComponent&#45;&gt;AedoModule -->
<g id="edge3" class="edge">
<title>CategoryItemComponent&#45;&gt;AedoModule</title>
<path fill="none" stroke="black" d="M4623,-122.28C4623,-143.32 4623,-175 4623,-175 4623,-175 2704.92,-175 2704.92,-175"/>
<polygon fill="black" stroke="black" points="2704.92,-171.5 2694.92,-175 2704.92,-178.5 2704.92,-171.5"/>
</g>
<!-- CommentListComponent -->
<g id="node4" class="node">
<title>CommentListComponent</title>
<polygon fill="#ffffb3" stroke="black" points="4526.33,-122 4367.67,-122 4367.67,-86 4526.33,-86 4526.33,-122"/>
<text text-anchor="middle" x="4447" y="-99.8" font-family="Times,serif" font-size="14.00">CommentListComponent</text>
</g>
<!-- CommentListComponent&#45;&gt;AedoModule -->
<g id="edge4" class="edge">
<title>CommentListComponent&#45;&gt;AedoModule</title>
<path fill="none" stroke="black" d="M4447,-122.13C4447,-142.57 4447,-173 4447,-173 4447,-173 2705.32,-173 2705.32,-173"/>
<polygon fill="black" stroke="black" points="2705.32,-169.5 2695.32,-173 2705.32,-176.5 2705.32,-169.5"/>
</g>
<!-- HomePageComponent -->
<g id="node5" class="node">
<title>HomePageComponent</title>
<polygon fill="#ffffb3" stroke="black" points="4349.26,-122 4206.74,-122 4206.74,-86 4349.26,-86 4349.26,-122"/>
<text text-anchor="middle" x="4278" y="-99.8" font-family="Times,serif" font-size="14.00">HomePageComponent</text>
</g>
<!-- HomePageComponent&#45;&gt;AedoModule -->
<g id="edge5" class="edge">
<title>HomePageComponent&#45;&gt;AedoModule</title>
<path fill="none" stroke="black" d="M4278,-122.31C4278,-142.15 4278,-171 4278,-171 4278,-171 2705.24,-171 2705.24,-171"/>
<polygon fill="black" stroke="black" points="2705.24,-167.5 2695.24,-171 2705.24,-174.5 2705.24,-167.5"/>
</g>
<!-- LanguageItemComponent -->
<g id="node6" class="node">
<title>LanguageItemComponent</title>
<polygon fill="#ffffb3" stroke="black" points="4189.19,-122 4026.81,-122 4026.81,-86 4189.19,-86 4189.19,-122"/>
<text text-anchor="middle" x="4108" y="-99.8" font-family="Times,serif" font-size="14.00">LanguageItemComponent</text>
</g>
<!-- LanguageItemComponent&#45;&gt;AedoModule -->
<g id="edge6" class="edge">
<title>LanguageItemComponent&#45;&gt;AedoModule</title>
<path fill="none" stroke="black" d="M4108,-122.17C4108,-141.09 4108,-168 4108,-168 4108,-168 2705.23,-168 2705.23,-168"/>
<polygon fill="black" stroke="black" points="2705.23,-164.5 2695.23,-168 2705.23,-171.5 2705.23,-164.5"/>
</g>
<!-- ListAdminComponent -->
<g id="node7" class="node">
<title>ListAdminComponent</title>
<polygon fill="#ffffb3" stroke="black" points="4009,-122 3867,-122 3867,-86 4009,-86 4009,-122"/>
<text text-anchor="middle" x="3938" y="-99.8" font-family="Times,serif" font-size="14.00">ListAdminComponent</text>
</g>
<!-- ListAdminComponent&#45;&gt;AedoModule -->
<g id="edge7" class="edge">
<title>ListAdminComponent&#45;&gt;AedoModule</title>
<path fill="none" stroke="black" d="M3938,-122.27C3938,-140.56 3938,-166 3938,-166 3938,-166 2705.09,-166 2705.09,-166"/>
<polygon fill="black" stroke="black" points="2705.09,-162.5 2695.09,-166 2705.09,-169.5 2705.09,-162.5"/>
</g>
<!-- ListCategoriesComponent -->
<g id="node8" class="node">
<title>ListCategoriesComponent</title>
<polygon fill="#ffffb3" stroke="black" points="3849.48,-122 3686.52,-122 3686.52,-86 3849.48,-86 3849.48,-122"/>
<text text-anchor="middle" x="3768" y="-99.8" font-family="Times,serif" font-size="14.00">ListCategoriesComponent</text>
</g>
<!-- ListCategoriesComponent&#45;&gt;AedoModule -->
<g id="edge8" class="edge">
<title>ListCategoriesComponent&#45;&gt;AedoModule</title>
<path fill="none" stroke="black" d="M3768,-122C3768,-139.68 3768,-164 3768,-164 3768,-164 2705.21,-164 2705.21,-164"/>
<polygon fill="black" stroke="black" points="2705.21,-160.5 2695.21,-164 2705.21,-167.5 2705.21,-160.5"/>
</g>
<!-- ListLanguagesComponent -->
<g id="node9" class="node">
<title>ListLanguagesComponent</title>
<polygon fill="#ffffb3" stroke="black" points="3668.75,-122 3505.25,-122 3505.25,-86 3668.75,-86 3668.75,-122"/>
<text text-anchor="middle" x="3587" y="-99.8" font-family="Times,serif" font-size="14.00">ListLanguagesComponent</text>
</g>
<!-- ListLanguagesComponent&#45;&gt;AedoModule -->
<g id="edge9" class="edge">
<title>ListLanguagesComponent&#45;&gt;AedoModule</title>
<path fill="none" stroke="black" d="M3587,-122.03C3587,-139.06 3587,-162 3587,-162 3587,-162 2704.88,-162 2704.88,-162"/>
<polygon fill="black" stroke="black" points="2704.88,-158.5 2694.88,-162 2704.88,-165.5 2704.88,-158.5"/>
</g>
<!-- ListUserComponent -->
<g id="node10" class="node">
<title>ListUserComponent</title>
<polygon fill="#ffffb3" stroke="black" points="3486.54,-122 3357.46,-122 3357.46,-86 3486.54,-86 3486.54,-122"/>
<text text-anchor="middle" x="3422" y="-99.8" font-family="Times,serif" font-size="14.00">ListUserComponent</text>
</g>
<!-- ListUserComponent&#45;&gt;AedoModule -->
<g id="edge10" class="edge">
<title>ListUserComponent&#45;&gt;AedoModule</title>
<path fill="none" stroke="black" d="M3422,-122.03C3422,-138.4 3422,-160 3422,-160 3422,-160 2705.13,-160 2705.13,-160"/>
<polygon fill="black" stroke="black" points="2705.13,-156.5 2695.13,-160 2705.13,-163.5 2705.13,-156.5"/>
</g>
<!-- LoginDialogComponent -->
<g id="node11" class="node">
<title>LoginDialogComponent</title>
<polygon fill="#ffffb3" stroke="black" points="3339.38,-122 3186.62,-122 3186.62,-86 3339.38,-86 3339.38,-122"/>
<text text-anchor="middle" x="3263" y="-99.8" font-family="Times,serif" font-size="14.00">LoginDialogComponent</text>
</g>
<!-- LoginDialogComponent&#45;&gt;AedoModule -->
<g id="edge11" class="edge">
<title>LoginDialogComponent&#45;&gt;AedoModule</title>
<path fill="none" stroke="black" d="M3263,-122.28C3263,-137.95 3263,-158 3263,-158 3263,-158 2705.08,-158 2705.08,-158"/>
<polygon fill="black" stroke="black" points="2705.08,-154.5 2695.08,-158 2705.08,-161.5 2705.08,-154.5"/>
</g>
<!-- MainViewPageComponent -->
<g id="node12" class="node">
<title>MainViewPageComponent</title>
<polygon fill="#ffffb3" stroke="black" points="3168.41,-122 2999.59,-122 2999.59,-86 3168.41,-86 3168.41,-122"/>
<text text-anchor="middle" x="3084" y="-99.8" font-family="Times,serif" font-size="14.00">MainViewPageComponent</text>
</g>
<!-- MainViewPageComponent&#45;&gt;AedoModule -->
<g id="edge12" class="edge">
<title>MainViewPageComponent&#45;&gt;AedoModule</title>
<path fill="none" stroke="black" d="M3084,-122.19C3084,-137.18 3084,-156 3084,-156 3084,-156 2705.22,-156 2705.22,-156"/>
<polygon fill="black" stroke="black" points="2705.22,-152.5 2695.22,-156 2705.22,-159.5 2705.22,-152.5"/>
</g>
<!-- MapComponent -->
<g id="node13" class="node">
<title>MapComponent</title>
<polygon fill="#ffffb3" stroke="black" points="2981.49,-122 2874.51,-122 2874.51,-86 2981.49,-86 2981.49,-122"/>
<text text-anchor="middle" x="2928" y="-99.8" font-family="Times,serif" font-size="14.00">MapComponent</text>
</g>
<!-- MapComponent&#45;&gt;AedoModule -->
<g id="edge13" class="edge">
<title>MapComponent&#45;&gt;AedoModule</title>
<path fill="none" stroke="black" d="M2928,-122.05C2928,-136.37 2928,-154 2928,-154 2928,-154 2704.97,-154 2704.97,-154"/>
<polygon fill="black" stroke="black" points="2704.97,-150.5 2694.97,-154 2704.97,-157.5 2704.97,-150.5"/>
</g>
<!-- OdiseaDetailsMapCardComponent -->
<g id="node14" class="node">
<title>OdiseaDetailsMapCardComponent</title>
<polygon fill="#ffffb3" stroke="black" points="2856.23,-122 2643.77,-122 2643.77,-86 2856.23,-86 2856.23,-122"/>
<text text-anchor="middle" x="2750" y="-99.8" font-family="Times,serif" font-size="14.00">OdiseaDetailsMapCardComponent</text>
</g>
<!-- OdiseaDetailsMapCardComponent&#45;&gt;AedoModule -->
<g id="edge14" class="edge">
<title>OdiseaDetailsMapCardComponent&#45;&gt;AedoModule</title>
<path fill="none" stroke="black" d="M2669.29,-122.11C2669.29,-122.11 2669.29,-140.99 2669.29,-140.99"/>
<polygon fill="black" stroke="black" points="2665.79,-140.99 2669.29,-150.99 2672.79,-140.99 2665.79,-140.99"/>
</g>
<!-- OdiseaFormComponent -->
<g id="node15" class="node">
<title>OdiseaFormComponent</title>
<polygon fill="#ffffb3" stroke="black" points="2625.04,-122 2474.96,-122 2474.96,-86 2625.04,-86 2625.04,-122"/>
<text text-anchor="middle" x="2550" y="-99.8" font-family="Times,serif" font-size="14.00">OdiseaFormComponent</text>
</g>
<!-- OdiseaFormComponent&#45;&gt;AedoModule -->
<g id="edge15" class="edge">
<title>OdiseaFormComponent&#45;&gt;AedoModule</title>
<path fill="none" stroke="black" d="M2615.17,-122.11C2615.17,-122.11 2615.17,-140.99 2615.17,-140.99"/>
<polygon fill="black" stroke="black" points="2611.67,-140.99 2615.17,-150.99 2618.67,-140.99 2611.67,-140.99"/>
</g>
<!-- OdiseaItemCardComponent -->
<g id="node16" class="node">
<title>OdiseaItemCardComponent</title>
<polygon fill="#ffffb3" stroke="black" points="2456.57,-122 2283.43,-122 2283.43,-86 2456.57,-86 2456.57,-122"/>
<text text-anchor="middle" x="2370" y="-99.8" font-family="Times,serif" font-size="14.00">OdiseaItemCardComponent</text>
</g>
<!-- OdiseaItemCardComponent&#45;&gt;AedoModule -->
<g id="edge16" class="edge">
<title>OdiseaItemCardComponent&#45;&gt;AedoModule</title>
<path fill="none" stroke="black" d="M2370,-122.05C2370,-136.37 2370,-154 2370,-154 2370,-154 2595.01,-154 2595.01,-154"/>
<polygon fill="black" stroke="black" points="2595.01,-157.5 2605.01,-154 2595.01,-150.5 2595.01,-157.5"/>
</g>
<!-- OdiseaProfileDetailsComponent -->
<g id="node17" class="node">
<title>OdiseaProfileDetailsComponent</title>
<polygon fill="#ffffb3" stroke="black" points="2264.96,-122 2067.04,-122 2067.04,-86 2264.96,-86 2264.96,-122"/>
<text text-anchor="middle" x="2166" y="-99.8" font-family="Times,serif" font-size="14.00">OdiseaProfileDetailsComponent</text>
</g>
<!-- OdiseaProfileDetailsComponent&#45;&gt;AedoModule -->
<g id="edge17" class="edge">
<title>OdiseaProfileDetailsComponent&#45;&gt;AedoModule</title>
<path fill="none" stroke="black" d="M2166,-122.24C2166,-137.57 2166,-157 2166,-157 2166,-157 2594.9,-157 2594.9,-157"/>
<polygon fill="black" stroke="black" points="2594.9,-160.5 2604.9,-157 2594.9,-153.5 2594.9,-160.5"/>
</g>
<!-- OdiseaProfileOdiseoComponent -->
<g id="node18" class="node">
<title>OdiseaProfileOdiseoComponent</title>
<polygon fill="#ffffb3" stroke="black" points="2048.96,-122 1851.04,-122 1851.04,-86 2048.96,-86 2048.96,-122"/>
<text text-anchor="middle" x="1950" y="-99.8" font-family="Times,serif" font-size="14.00">OdiseaProfileOdiseoComponent</text>
</g>
<!-- OdiseaProfileOdiseoComponent&#45;&gt;AedoModule -->
<g id="edge18" class="edge">
<title>OdiseaProfileOdiseoComponent&#45;&gt;AedoModule</title>
<path fill="none" stroke="black" d="M1950,-122.01C1950,-138.05 1950,-159 1950,-159 1950,-159 2594.88,-159 2594.88,-159"/>
<polygon fill="black" stroke="black" points="2594.88,-162.5 2604.88,-159 2594.88,-155.5 2594.88,-162.5"/>
</g>
<!-- OdiseaProfilePageComponent -->
<g id="node19" class="node">
<title>OdiseaProfilePageComponent</title>
<polygon fill="#ffffb3" stroke="black" points="1832.52,-122 1647.48,-122 1647.48,-86 1832.52,-86 1832.52,-122"/>
<text text-anchor="middle" x="1740" y="-99.8" font-family="Times,serif" font-size="14.00">OdiseaProfilePageComponent</text>
</g>
<!-- OdiseaProfilePageComponent&#45;&gt;AedoModule -->
<g id="edge19" class="edge">
<title>OdiseaProfilePageComponent&#45;&gt;AedoModule</title>
<path fill="none" stroke="black" d="M1740,-122.03C1740,-139.06 1740,-162 1740,-162 1740,-162 2594.87,-162 2594.87,-162"/>
<polygon fill="black" stroke="black" points="2594.87,-165.5 2604.87,-162 2594.87,-158.5 2594.87,-165.5"/>
</g>
<!-- OdiseaRegisterPageComponent -->
<g id="node20" class="node">
<title>OdiseaRegisterPageComponent</title>
<polygon fill="#ffffb3" stroke="black" points="1629.07,-122 1434.93,-122 1434.93,-86 1629.07,-86 1629.07,-122"/>
<text text-anchor="middle" x="1532" y="-99.8" font-family="Times,serif" font-size="14.00">OdiseaRegisterPageComponent</text>
</g>
<!-- OdiseaRegisterPageComponent&#45;&gt;AedoModule -->
<g id="edge20" class="edge">
<title>OdiseaRegisterPageComponent&#45;&gt;AedoModule</title>
<path fill="none" stroke="black" d="M1532,-122C1532,-139.68 1532,-164 1532,-164 1532,-164 2594.79,-164 2594.79,-164"/>
<polygon fill="black" stroke="black" points="2594.79,-167.5 2604.79,-164 2594.79,-160.5 2594.79,-167.5"/>
</g>
<!-- ProfileCardComponent -->
<g id="node21" class="node">
<title>ProfileCardComponent</title>
<polygon fill="#ffffb3" stroke="black" points="1417.14,-122 1270.86,-122 1270.86,-86 1417.14,-86 1417.14,-122"/>
<text text-anchor="middle" x="1344" y="-99.8" font-family="Times,serif" font-size="14.00">ProfileCardComponent</text>
</g>
<!-- ProfileCardComponent&#45;&gt;AedoModule -->
<g id="edge21" class="edge">
<title>ProfileCardComponent&#45;&gt;AedoModule</title>
<path fill="none" stroke="black" d="M1344,-122.22C1344,-140.83 1344,-167 1344,-167 1344,-167 2595.04,-167 2595.04,-167"/>
<polygon fill="black" stroke="black" points="2595.04,-170.5 2605.04,-167 2595.04,-163.5 2595.04,-170.5"/>
</g>
<!-- ProfileViewPageComponent -->
<g id="node22" class="node">
<title>ProfileViewPageComponent</title>
<polygon fill="#ffffb3" stroke="black" points="1252.46,-122 1075.54,-122 1075.54,-86 1252.46,-86 1252.46,-122"/>
<text text-anchor="middle" x="1164" y="-99.8" font-family="Times,serif" font-size="14.00">ProfileViewPageComponent</text>
</g>
<!-- ProfileViewPageComponent&#45;&gt;AedoModule -->
<g id="edge22" class="edge">
<title>ProfileViewPageComponent&#45;&gt;AedoModule</title>
<path fill="none" stroke="black" d="M1164,-122.11C1164,-141.34 1164,-169 1164,-169 1164,-169 2595.12,-169 2595.12,-169"/>
<polygon fill="black" stroke="black" points="2595.12,-172.5 2605.12,-169 2595.12,-165.5 2595.12,-172.5"/>
</g>
<!-- RegisterDialogComponent -->
<g id="node23" class="node">
<title>RegisterDialogComponent</title>
<polygon fill="#ffffb3" stroke="black" points="1057.09,-122 890.91,-122 890.91,-86 1057.09,-86 1057.09,-122"/>
<text text-anchor="middle" x="974" y="-99.8" font-family="Times,serif" font-size="14.00">RegisterDialogComponent</text>
</g>
<!-- RegisterDialogComponent&#45;&gt;AedoModule -->
<g id="edge23" class="edge">
<title>RegisterDialogComponent&#45;&gt;AedoModule</title>
<path fill="none" stroke="black" d="M974,-122.22C974,-142.37 974,-172 974,-172 974,-172 2594.74,-172 2594.74,-172"/>
<polygon fill="black" stroke="black" points="2594.74,-175.5 2604.74,-172 2594.74,-168.5 2594.74,-175.5"/>
</g>
<!-- ResetEmailDialogComponent -->
<g id="node24" class="node">
<title>ResetEmailDialogComponent</title>
<polygon fill="#ffffb3" stroke="black" points="872.97,-122 689.03,-122 689.03,-86 872.97,-86 872.97,-122"/>
<text text-anchor="middle" x="781" y="-99.8" font-family="Times,serif" font-size="14.00">ResetEmailDialogComponent</text>
</g>
<!-- ResetEmailDialogComponent&#45;&gt;AedoModule -->
<g id="edge24" class="edge">
<title>ResetEmailDialogComponent&#45;&gt;AedoModule</title>
<path fill="none" stroke="black" d="M781,-122.28C781,-143.32 781,-175 781,-175 781,-175 2594.73,-175 2594.73,-175"/>
<polygon fill="black" stroke="black" points="2594.73,-178.5 2604.73,-175 2594.73,-171.5 2594.73,-178.5"/>
</g>
<!-- ResetPasswordDialogComponent -->
<g id="node25" class="node">
<title>ResetPasswordDialogComponent</title>
<polygon fill="#ffffb3" stroke="black" points="671.19,-122 466.81,-122 466.81,-86 671.19,-86 671.19,-122"/>
<text text-anchor="middle" x="569" y="-99.8" font-family="Times,serif" font-size="14.00">ResetPasswordDialogComponent</text>
</g>
<!-- ResetPasswordDialogComponent&#45;&gt;AedoModule -->
<g id="edge25" class="edge">
<title>ResetPasswordDialogComponent&#45;&gt;AedoModule</title>
<path fill="none" stroke="black" d="M569,-122.04C569,-143.66 569,-177 569,-177 569,-177 2595.09,-177 2595.09,-177"/>
<polygon fill="black" stroke="black" points="2595.09,-180.5 2605.09,-177 2595.09,-173.5 2595.09,-180.5"/>
</g>
<!-- UserStatusComponent -->
<g id="node26" class="node">
<title>UserStatusComponent</title>
<polygon fill="#ffffb3" stroke="black" points="448.98,-122 307.02,-122 307.02,-86 448.98,-86 448.98,-122"/>
<text text-anchor="middle" x="378" y="-99.8" font-family="Times,serif" font-size="14.00">UserStatusComponent</text>
</g>
<!-- UserStatusComponent&#45;&gt;AedoModule -->
<g id="edge26" class="edge">
<title>UserStatusComponent&#45;&gt;AedoModule</title>
<path fill="none" stroke="black" d="M378,-122.01C378,-144.49 378,-180 378,-180 378,-180 2595.13,-180 2595.13,-180"/>
<polygon fill="black" stroke="black" points="2595.13,-183.5 2605.13,-180 2595.13,-176.5 2595.13,-183.5"/>
</g>
<!-- AedoRoutingModule -->
<g id="node28" class="node">
<title>AedoRoutingModule</title>
<polygon fill="#8dd3c7" stroke="black" points="283.49,-122 280.49,-126 259.49,-126 256.49,-122 148.51,-122 148.51,-86 283.49,-86 283.49,-122"/>
<text text-anchor="middle" x="216" y="-99.8" font-family="Times,serif" font-size="14.00">AedoRoutingModule</text>
</g>
<!-- AedoRoutingModule&#45;&gt;AedoModule -->
<g id="edge27" class="edge">
<title>AedoRoutingModule&#45;&gt;AedoModule</title>
<path fill="none" stroke="black" d="M216,-122.09C216,-145.13 216,-182 216,-182 216,-182 2594.88,-182 2594.88,-182"/>
<polygon fill="black" stroke="black" points="2594.88,-185.5 2604.88,-182 2594.88,-178.5 2594.88,-185.5"/>
</g>
<!-- MaterialModule -->
<g id="node29" class="node">
<title>MaterialModule</title>
<polygon fill="#8dd3c7" stroke="black" points="130.47,-122 127.47,-126 106.47,-126 103.47,-122 23.53,-122 23.53,-86 130.47,-86 130.47,-122"/>
<text text-anchor="middle" x="77" y="-99.8" font-family="Times,serif" font-size="14.00">MaterialModule</text>
</g>
<!-- MaterialModule&#45;&gt;AedoModule -->
<g id="edge28" class="edge">
<title>MaterialModule&#45;&gt;AedoModule</title>
<path fill="none" stroke="black" d="M77,-122.38C77,-146.28 77,-185 77,-185 77,-185 2595.07,-185 2595.07,-185"/>
<polygon fill="black" stroke="black" points="2595.07,-188.5 2605.07,-185 2595.07,-181.5 2595.07,-188.5"/>
</g>
<!-- AppComponent -->
<g id="node30" class="node">
<title>AppComponent</title>
<polygon fill="#ffffb3" stroke="black" points="6556.94,-122 6451.06,-122 6451.06,-86 6556.94,-86 6556.94,-122"/>
<text text-anchor="middle" x="6504" y="-99.8" font-family="Times,serif" font-size="14.00">AppComponent</text>
</g>
<!-- AppModule -->
<g id="node32" class="node">
<title>AppModule</title>
<polygon fill="#8dd3c7" stroke="black" points="6074.66,-187 6071.66,-191 6050.66,-191 6047.66,-187 5991.34,-187 5991.34,-151 6074.66,-151 6074.66,-187"/>
<text text-anchor="middle" x="6033" y="-164.8" font-family="Times,serif" font-size="14.00">AppModule</text>
</g>
<!-- AppComponent&#45;&gt;AppModule -->
<g id="edge29" class="edge">
<title>AppComponent&#45;&gt;AppModule</title>
<path fill="none" stroke="black" d="M6504,-122.29C6504,-144.21 6504,-178 6504,-178 6504,-178 6084.8,-178 6084.8,-178"/>
<polygon fill="black" stroke="black" points="6084.8,-174.5 6074.8,-178 6084.8,-181.5 6084.8,-174.5"/>
</g>
<!-- ErrorPageComponent -->
<g id="node31" class="node">
<title>ErrorPageComponent</title>
<polygon fill="#ffffb3" stroke="black" points="6433.08,-122 6294.92,-122 6294.92,-86 6433.08,-86 6433.08,-122"/>
<text text-anchor="middle" x="6364" y="-99.8" font-family="Times,serif" font-size="14.00">ErrorPageComponent</text>
</g>
<!-- ErrorPageComponent&#45;&gt;AppModule -->
<g id="edge30" class="edge">
<title>ErrorPageComponent&#45;&gt;AppModule</title>
<path fill="none" stroke="black" d="M6364,-122.11C6364,-141.34 6364,-169 6364,-169 6364,-169 6084.92,-169 6084.92,-169"/>
<polygon fill="black" stroke="black" points="6084.92,-165.5 6074.92,-169 6084.92,-172.5 6084.92,-165.5"/>
</g>
<!-- AppComponent  -->
<g id="node38" class="node">
<title>AppComponent </title>
<polygon fill="#80b1d3" stroke="black" points="6087.44,-252 5978.56,-252 5978.56,-216 6087.44,-216 6087.44,-252"/>
<text text-anchor="middle" x="6033" y="-229.8" font-family="Times,serif" font-size="14.00">AppComponent </text>
</g>
<!-- AppModule&#45;&gt;AppComponent  -->
<g id="edge36" class="edge">
<title>AppModule&#45;&gt;AppComponent </title>
<path fill="none" stroke="black" stroke-dasharray="1,5" d="M6033,-187.11C6033,-187.11 6033,-205.99 6033,-205.99"/>
<polygon fill="black" stroke="black" points="6029.5,-205.99 6033,-215.99 6036.5,-205.99 6029.5,-205.99"/>
</g>
<!-- AppRoutingModule -->
<g id="node33" class="node">
<title>AppRoutingModule</title>
<polygon fill="#8dd3c7" stroke="black" points="6271.27,-122 6268.27,-126 6247.27,-126 6244.27,-122 6142.73,-122 6142.73,-86 6271.27,-86 6271.27,-122"/>
<text text-anchor="middle" x="6207" y="-99.8" font-family="Times,serif" font-size="14.00">AppRoutingModule</text>
</g>
<!-- AppRoutingModule&#45;&gt;AppModule -->
<g id="edge31" class="edge">
<title>AppRoutingModule&#45;&gt;AppModule</title>
<path fill="none" stroke="black" d="M6207,-122.03C6207,-138.4 6207,-160 6207,-160 6207,-160 6084.68,-160 6084.68,-160"/>
<polygon fill="black" stroke="black" points="6084.68,-156.5 6074.68,-160 6084.68,-163.5 6084.68,-156.5"/>
</g>
<!-- provideAuth(() =&gt; getAuth()) -->
<g id="node34" class="node">
<title>provideAuth(() =&gt; getAuth())</title>
<polygon fill="#8dd3c7" stroke="black" points="6124.12,-122 6121.12,-126 6100.12,-126 6097.12,-122 5941.88,-122 5941.88,-86 6124.12,-86 6124.12,-122"/>
<text text-anchor="middle" x="6033" y="-99.8" font-family="Times,serif" font-size="14.00">provideAuth(() =&gt; getAuth())</text>
</g>
<!-- provideAuth(() =&gt; getAuth())&#45;&gt;AppModule -->
<g id="edge32" class="edge">
<title>provideAuth(() =&gt; getAuth())&#45;&gt;AppModule</title>
<path fill="none" stroke="black" d="M6033,-122.11C6033,-122.11 6033,-140.99 6033,-140.99"/>
<polygon fill="black" stroke="black" points="6029.5,-140.99 6033,-150.99 6036.5,-140.99 6029.5,-140.99"/>
</g>
<!-- provideFirebaseApp(() =&gt; initializeApp(environment -->
<g id="node35" class="node">
<title>provideFirebaseApp(() =&gt; initializeApp(environment</title>
<polygon fill="#8dd3c7" stroke="black" points="5923.58,-122 5920.58,-126 5899.58,-126 5896.58,-122 5608.42,-122 5608.42,-86 5923.58,-86 5923.58,-122"/>
<text text-anchor="middle" x="5766" y="-99.8" font-family="Times,serif" font-size="14.00">provideFirebaseApp(() =&gt; initializeApp(environment</text>
</g>
<!-- provideFirebaseApp(() =&gt; initializeApp(environment&#45;&gt;AppModule -->
<g id="edge33" class="edge">
<title>provideFirebaseApp(() =&gt; initializeApp(environment&#45;&gt;AppModule</title>
<path fill="none" stroke="black" d="M5766,-122.25C5766,-145.02 5766,-181 5766,-181 5766,-181 5981.28,-181 5981.28,-181"/>
<polygon fill="black" stroke="black" points="5981.28,-184.5 5991.28,-181 5981.28,-177.5 5981.28,-184.5"/>
</g>
<!-- provideFirestore(() =&gt; getFirestore()) -->
<g id="node36" class="node">
<title>provideFirestore(() =&gt; getFirestore())</title>
<polygon fill="#8dd3c7" stroke="black" points="5590.14,-122 5587.14,-126 5566.14,-126 5563.14,-122 5363.86,-122 5363.86,-86 5590.14,-86 5590.14,-122"/>
<text text-anchor="middle" x="5477" y="-99.8" font-family="Times,serif" font-size="14.00">provideFirestore(() =&gt; getFirestore())</text>
</g>
<!-- provideFirestore(() =&gt; getFirestore())&#45;&gt;AppModule -->
<g id="edge34" class="edge">
<title>provideFirestore(() =&gt; getFirestore())&#45;&gt;AppModule</title>
<path fill="none" stroke="black" d="M5477,-122.32C5477,-145.66 5477,-183 5477,-183 5477,-183 5981.21,-183 5981.21,-183"/>
<polygon fill="black" stroke="black" points="5981.21,-186.5 5991.21,-183 5981.21,-179.5 5981.21,-186.5"/>
</g>
<!-- provideStorage(() =&gt; getStorage()) -->
<g id="node37" class="node">
<title>provideStorage(() =&gt; getStorage())</title>
<polygon fill="#8dd3c7" stroke="black" points="5346.15,-122 5343.15,-126 5322.15,-126 5319.15,-122 5133.85,-122 5133.85,-86 5346.15,-86 5346.15,-122"/>
<text text-anchor="middle" x="5240" y="-99.8" font-family="Times,serif" font-size="14.00">provideStorage(() =&gt; getStorage())</text>
</g>
<!-- provideStorage(() =&gt; getStorage())&#45;&gt;AppModule -->
<g id="edge35" class="edge">
<title>provideStorage(() =&gt; getStorage())&#45;&gt;AppModule</title>
<path fill="none" stroke="black" d="M5240,-122.38C5240,-146.28 5240,-185 5240,-185 5240,-185 5981.2,-185 5981.2,-185"/>
<polygon fill="black" stroke="black" points="5981.2,-188.5 5991.2,-185 5981.2,-181.5 5981.2,-188.5"/>
</g>
</g>
</svg>
